# xmcd
#
# Track frame offsets:
# 183
# 19123
# 38708
# 58608
# 86063
# 100108
# 120468
# 133965
# 153800
# 170448
# 187880
#
# Disc length: 2690 seconds
#
# Revision: 2
# Processed by: cddbd v1.4PL0 Copyright (c) Steve Scherf et al.
# Submitted via: Axialis_AX_CDPlayer 2.6
#
DISCID=840a800b
DTITLE=Vários - Mississippi Blues Festival 86
DYEAR=1900
DGENRE=
TTITLE0=Eagle Bird
TTITLE1=Streamline Train
TTITLE2=I'm So Glad You Don't Know What's On My Mind
TTITLE3=My Daddy's Blues
TTITLE4=She Used To Be Your Woman But She Comes To See Me Sometimes
TTITLE5=Crawlin' King Snake
TTITLE6=Beefstake Blues
TTITLE7=It Hurts Me Too
TTITLE8=Cairo Blues
TTITLE9=Roll Me Baby
TTITLE10=Lawdy Miss Claudy
EXTD=
EXTT0=
EXTT1=
EXTT2=
EXTT3=
EXTT4=
EXTT5=
EXTT6=
EXTT7=
EXTT8=
EXTT9=
EXTT10=
PLAYORDER=
